<mxfile host="app.diagrams.net" agent="Mozilla/5.0 (Windows NT 10.0; Win64; x64) AppleWebKit/537.36 (KHTML, like Gecko) Chrome/128.0.0.0 Safari/537.36" version="24.7.12">
  <diagram name="Halaman-1" id="u87bJe2DpnhAfC176heb">
    <mxGraphModel dx="1434" dy="772" grid="1" gridSize="10" guides="1" tooltips="1" connect="1" arrows="1" fold="1" page="1" pageScale="1" pageWidth="827" pageHeight="1169" math="0" shadow="0">
      <root>
        <mxCell id="0" />
        <mxCell id="1" parent="0" />
        <mxCell id="LbGkmwVccaObO6Hwc_Lx-1" value="" style="rounded=0;whiteSpace=wrap;html=1;" vertex="1" parent="1">
          <mxGeometry x="304" y="40" width="240" height="450" as="geometry" />
        </mxCell>
        <mxCell id="LbGkmwVccaObO6Hwc_Lx-15" style="edgeStyle=orthogonalEdgeStyle;rounded=0;orthogonalLoop=1;jettySize=auto;html=1;exitX=0;exitY=0.3333333333333333;exitDx=0;exitDy=0;exitPerimeter=0;entryX=1;entryY=0.5;entryDx=0;entryDy=0;" edge="1" parent="1" source="LbGkmwVccaObO6Hwc_Lx-3" target="LbGkmwVccaObO6Hwc_Lx-9">
          <mxGeometry relative="1" as="geometry" />
        </mxCell>
        <mxCell id="LbGkmwVccaObO6Hwc_Lx-16" style="edgeStyle=orthogonalEdgeStyle;rounded=0;orthogonalLoop=1;jettySize=auto;html=1;exitX=0;exitY=0.3333333333333333;exitDx=0;exitDy=0;exitPerimeter=0;" edge="1" parent="1" source="LbGkmwVccaObO6Hwc_Lx-3" target="LbGkmwVccaObO6Hwc_Lx-8">
          <mxGeometry relative="1" as="geometry" />
        </mxCell>
        <mxCell id="LbGkmwVccaObO6Hwc_Lx-18" style="edgeStyle=orthogonalEdgeStyle;rounded=0;orthogonalLoop=1;jettySize=auto;html=1;exitX=0;exitY=0.3333333333333333;exitDx=0;exitDy=0;exitPerimeter=0;" edge="1" parent="1" source="LbGkmwVccaObO6Hwc_Lx-3" target="LbGkmwVccaObO6Hwc_Lx-7">
          <mxGeometry relative="1" as="geometry" />
        </mxCell>
        <mxCell id="LbGkmwVccaObO6Hwc_Lx-19" style="edgeStyle=orthogonalEdgeStyle;rounded=0;orthogonalLoop=1;jettySize=auto;html=1;exitX=0;exitY=0.3333333333333333;exitDx=0;exitDy=0;exitPerimeter=0;entryX=1;entryY=0.5;entryDx=0;entryDy=0;" edge="1" parent="1" source="LbGkmwVccaObO6Hwc_Lx-3" target="LbGkmwVccaObO6Hwc_Lx-6">
          <mxGeometry relative="1" as="geometry" />
        </mxCell>
        <mxCell id="LbGkmwVccaObO6Hwc_Lx-3" value="perpustakawan&amp;nbsp;" style="shape=umlActor;verticalLabelPosition=bottom;verticalAlign=top;html=1;outlineConnect=0;" vertex="1" parent="1">
          <mxGeometry x="554" y="165" width="80" height="160" as="geometry" />
        </mxCell>
        <mxCell id="LbGkmwVccaObO6Hwc_Lx-12" style="edgeStyle=orthogonalEdgeStyle;rounded=0;orthogonalLoop=1;jettySize=auto;html=1;exitX=1;exitY=0.3333333333333333;exitDx=0;exitDy=0;exitPerimeter=0;entryX=0;entryY=0.5;entryDx=0;entryDy=0;" edge="1" parent="1" source="LbGkmwVccaObO6Hwc_Lx-5" target="LbGkmwVccaObO6Hwc_Lx-9">
          <mxGeometry relative="1" as="geometry" />
        </mxCell>
        <mxCell id="LbGkmwVccaObO6Hwc_Lx-13" style="edgeStyle=orthogonalEdgeStyle;rounded=0;orthogonalLoop=1;jettySize=auto;html=1;exitX=1;exitY=0.3333333333333333;exitDx=0;exitDy=0;exitPerimeter=0;" edge="1" parent="1" source="LbGkmwVccaObO6Hwc_Lx-5" target="LbGkmwVccaObO6Hwc_Lx-8">
          <mxGeometry relative="1" as="geometry" />
        </mxCell>
        <mxCell id="LbGkmwVccaObO6Hwc_Lx-14" style="edgeStyle=orthogonalEdgeStyle;rounded=0;orthogonalLoop=1;jettySize=auto;html=1;exitX=1;exitY=0.3333333333333333;exitDx=0;exitDy=0;exitPerimeter=0;" edge="1" parent="1" source="LbGkmwVccaObO6Hwc_Lx-5" target="LbGkmwVccaObO6Hwc_Lx-7">
          <mxGeometry relative="1" as="geometry" />
        </mxCell>
        <mxCell id="LbGkmwVccaObO6Hwc_Lx-5" value="pengunjung" style="shape=umlActor;verticalLabelPosition=bottom;verticalAlign=top;html=1;outlineConnect=0;" vertex="1" parent="1">
          <mxGeometry x="194" y="185" width="80" height="160" as="geometry" />
        </mxCell>
        <mxCell id="LbGkmwVccaObO6Hwc_Lx-6" value="laporan statistik" style="ellipse;whiteSpace=wrap;html=1;" vertex="1" parent="1">
          <mxGeometry x="364" y="355" width="120" height="80" as="geometry" />
        </mxCell>
        <mxCell id="LbGkmwVccaObO6Hwc_Lx-7" value="detail nuku" style="ellipse;whiteSpace=wrap;html=1;" vertex="1" parent="1">
          <mxGeometry x="364" y="255" width="120" height="80" as="geometry" />
        </mxCell>
        <mxCell id="LbGkmwVccaObO6Hwc_Lx-8" value="pencarian buku" style="ellipse;whiteSpace=wrap;html=1;" vertex="1" parent="1">
          <mxGeometry x="364" y="165" width="120" height="80" as="geometry" />
        </mxCell>
        <mxCell id="LbGkmwVccaObO6Hwc_Lx-9" value="from pengunjung" style="ellipse;whiteSpace=wrap;html=1;" vertex="1" parent="1">
          <mxGeometry x="364" y="55" width="120" height="80" as="geometry" />
        </mxCell>
        <mxCell id="LbGkmwVccaObO6Hwc_Lx-11" style="edgeStyle=orthogonalEdgeStyle;rounded=0;orthogonalLoop=1;jettySize=auto;html=1;exitX=0.5;exitY=1;exitDx=0;exitDy=0;" edge="1" parent="1" source="LbGkmwVccaObO6Hwc_Lx-1" target="LbGkmwVccaObO6Hwc_Lx-1">
          <mxGeometry relative="1" as="geometry" />
        </mxCell>
      </root>
    </mxGraphModel>
  </diagram>
</mxfile>
